<svg width="24" height="24" viewBox="0 0 24 24" fill="none" xmlns="http://www.w3.org/2000/svg">
<path d="M12.8333 19.8333V22.1667C12.8333 22.4761 12.7104 22.7728 12.4916 22.9916C12.2728 23.2104 11.9761 23.3333 11.6667 23.3333C11.3572 23.3333 11.0605 23.2104 10.8417 22.9916C10.6229 22.7728 10.5 22.4761 10.5 22.1667V19.8333H8.16667V22.1667C8.16667 22.4761 8.04375 22.7728 7.82496 22.9916C7.60617 23.2104 7.30942 23.3333 7 23.3333C6.69058 23.3333 6.39384 23.2104 6.17504 22.9916C5.95625 22.7728 5.83333 22.4761 5.83333 22.1667V19.8333C5.83333 19.7672 5.83878 19.7027 5.84967 19.6397C5.35094 19.4662 4.89793 19.1822 4.52455 18.8088C4.15118 18.4354 3.86713 17.9824 3.69367 17.4837C3.62968 17.4945 3.5649 17.5 3.5 17.5H1.16667C0.857247 17.5 0.560501 17.3771 0.341709 17.1583C0.122916 16.9395 0 16.6428 0 16.3333C0 16.0239 0.122916 15.7272 0.341709 15.5084C0.560501 15.2896 0.857247 15.1667 1.16667 15.1667H3.5V12.8333H1.16667C0.857247 12.8333 0.560501 12.7104 0.341709 12.4916C0.122916 12.2728 0 11.9761 0 11.6667C0 11.3572 0.122916 11.0605 0.341709 10.8417C0.560501 10.6229 0.857247 10.5 1.16667 10.5H3.5V8.16667H1.16667C0.857247 8.16667 0.560501 8.04375 0.341709 7.82496C0.122916 7.60617 0 7.30942 0 7C0 6.69058 0.122916 6.39384 0.341709 6.17504C0.560501 5.95625 0.857247 5.83333 1.16667 5.83333H3.5C3.56611 5.83333 3.63067 5.83878 3.69367 5.84967C4.04367 4.84167 4.84167 4.04367 5.84967 3.69367C5.83885 3.62968 5.83338 3.5649 5.83333 3.5V1.16667C5.83333 0.857247 5.95625 0.560501 6.17504 0.341709C6.39384 0.122916 6.69058 0 7 0C7.30942 0 7.60617 0.122916 7.82496 0.341709C8.04375 0.560501 8.16667 0.857247 8.16667 1.16667V3.5H10.5V1.16667C10.5 0.857247 10.6229 0.560501 10.8417 0.341709C11.0605 0.122916 11.3572 0 11.6667 0C11.9761 0 12.2728 0.122916 12.4916 0.341709C12.7104 0.560501 12.8333 0.857247 12.8333 1.16667V3.5H15.1667V1.16667C15.1667 0.857247 15.2896 0.560501 15.5084 0.341709C15.7272 0.122916 16.0239 0 16.3333 0C16.6428 0 16.9395 0.122916 17.1583 0.341709C17.3771 0.560501 17.5 0.857247 17.5 1.16667V3.5C17.5 3.56533 17.4946 3.62989 17.4837 3.69367C18.4917 4.04367 19.2897 4.84167 19.6397 5.84967C19.7037 5.83885 19.7684 5.83338 19.8333 5.83333H22.1667C22.4761 5.83333 22.7728 5.95625 22.9916 6.17504C23.2104 6.39384 23.3333 6.69058 23.3333 7C23.3333 7.30942 23.2104 7.60617 22.9916 7.82496C22.7728 8.04375 22.4761 8.16667 22.1667 8.16667H19.8333V10.5H22.1667C22.4761 10.5 22.7728 10.6229 22.9916 10.8417C23.2104 11.0605 23.3333 11.3572 23.3333 11.6667C23.3333 11.9761 23.2104 12.2728 22.9916 12.4916C22.7728 12.7104 22.4761 12.8333 22.1667 12.8333H19.8333V15.1667H22.1667C22.4761 15.1667 22.7728 15.2896 22.9916 15.5084C23.2104 15.7272 23.3333 16.0239 23.3333 16.3333C23.3333 16.6428 23.2104 16.9395 22.9916 17.1583C22.7728 17.3771 22.4761 17.5 22.1667 17.5H19.8333C19.7672 17.5 19.7027 17.4946 19.6397 17.4837C19.4662 17.9824 19.1822 18.4354 18.8088 18.8088C18.4354 19.1822 17.9824 19.4662 17.4837 19.6397C17.4946 19.7027 17.5 19.7672 17.5 19.8333V22.1667C17.5 22.4761 17.3771 22.7728 17.1583 22.9916C16.9395 23.2104 16.6428 23.3333 16.3333 23.3333C16.0239 23.3333 15.7272 23.2104 15.5084 22.9916C15.2896 22.7728 15.1667 22.4761 15.1667 22.1667V19.8333H12.8333ZM9.33333 8.16667C9.02391 8.16667 8.72717 8.28958 8.50838 8.50838C8.28958 8.72717 8.16667 9.02391 8.16667 9.33333V14C8.16667 14.3094 8.28958 14.6062 8.50838 14.825C8.72717 15.0438 9.02391 15.1667 9.33333 15.1667H14C14.3094 15.1667 14.6062 15.0438 14.825 14.825C15.0438 14.6062 15.1667 14.3094 15.1667 14V9.33333C15.1667 9.02391 15.0438 8.72717 14.825 8.50838C14.6062 8.28958 14.3094 8.16667 14 8.16667H9.33333Z" fill="white"/>
</svg>
