<svg width="46" height="46" viewBox="0 0 46 46" fill="none" xmlns="http://www.w3.org/2000/svg">
<rect width="45.3333" height="45.3333" rx="10.6667" fill="black"/>
<path d="M30.9173 15.3685C30.9173 15.3663 30.9169 15.3644 30.9166 15.3625C30.9166 15.3029 30.9102 15.2437 30.8986 15.1848C30.8933 15.1585 30.8836 15.1338 30.8761 15.1083C30.8663 15.0753 30.8588 15.0419 30.8453 15.0097C30.8329 14.9797 30.8157 14.9523 30.8003 14.9242C30.7868 14.899 30.7756 14.8728 30.7594 14.8484C30.7279 14.8015 30.6919 14.758 30.6526 14.7175C30.6488 14.7138 30.6466 14.7093 30.6432 14.7059C30.5997 14.6624 30.5517 14.6234 30.5003 14.5889C30.4782 14.5739 30.4542 14.5638 30.4309 14.551C30.4006 14.5342 30.3713 14.5158 30.3387 14.5023C30.3091 14.4899 30.2779 14.4832 30.2476 14.4742C30.2194 14.4659 30.1928 14.455 30.1636 14.449C30.1032 14.437 30.0417 14.4307 29.9806 14.4307H29.9798H18.1339C17.6161 14.4307 17.1964 14.8503 17.1964 15.3682C17.1964 15.886 17.6161 16.3057 18.1339 16.3057H27.7133L14.6922 29.3024C14.3258 29.6684 14.3251 30.262 14.6911 30.6284C14.8741 30.8118 15.1144 30.9037 15.3548 30.9037C15.5952 30.9037 15.8341 30.8122 16.0174 30.6299L29.0423 17.6287V27.214C29.0423 27.7319 29.4619 28.1515 29.9798 28.1515C30.4977 28.1515 30.9173 27.7319 30.9173 27.214V15.3685Z" fill="white"/>
</svg>
