<svg width="34" height="34" viewBox="0 0 34 34" fill="none" xmlns="http://www.w3.org/2000/svg">
<path d="M30.3168 20.1872L20.1877 30.3163C19.9043 30.5997 19.5856 30.8122 19.2314 30.9538C18.8772 31.0955 18.5231 31.1663 18.1689 31.1663C17.8147 31.1663 17.4606 31.0955 17.1064 30.9538C16.7522 30.8122 16.4335 30.5997 16.1502 30.3163L3.64808 17.8143C3.38836 17.5545 3.18766 17.2537 3.046 16.9118C2.90433 16.57 2.8335 16.2096 2.8335 15.8309V5.66634C2.8335 4.88717 3.11116 4.2204 3.6665 3.66601C4.22183 3.11162 4.88861 2.83395 5.66683 2.83301H15.8314C16.2092 2.83301 16.5752 2.90998 16.9293 3.06392C17.2835 3.21787 17.5904 3.42423 17.8502 3.68301L30.3168 16.1851C30.6002 16.4684 30.807 16.7872 30.9373 17.1413C31.0677 17.4955 31.1324 17.8497 31.1314 18.2038C31.1305 18.558 31.0658 18.9065 30.9373 19.2493C30.8089 19.5922 30.6021 19.9048 30.3168 20.1872ZM18.1689 28.333L28.2981 18.2038L15.796 5.66634H5.66683V15.7955L18.1689 28.333ZM9.2085 11.333C9.79877 11.333 10.3007 11.1266 10.7144 10.7139C11.1281 10.3012 11.3344 9.79923 11.3335 9.20801C11.3326 8.61679 11.1262 8.11529 10.7144 7.70351C10.3026 7.29173 9.80066 7.0849 9.2085 7.08301C8.61633 7.08112 8.11483 7.28795 7.704 7.70351C7.29316 8.11906 7.08633 8.62056 7.0835 9.20801C7.08066 9.79545 7.2875 10.2974 7.704 10.7139C8.1205 11.1304 8.622 11.3368 9.2085 11.333ZM19.4085 23.7997L23.3752 19.833C23.6349 19.5733 23.8417 19.2663 23.9957 18.9122C24.1496 18.558 24.2261 18.1802 24.2252 17.7788C24.2252 16.9761 23.9418 16.2913 23.3752 15.7247C22.8085 15.158 22.1238 14.8747 21.321 14.8747C20.8724 14.8747 20.4299 15.0045 19.9936 15.2643C19.5572 15.524 19.0317 15.9608 18.4168 16.5747C17.7085 15.9136 17.1536 15.465 16.7522 15.2288C16.3509 14.9927 15.9377 14.8747 15.5127 14.8747C14.7099 14.8747 14.0252 15.158 13.4585 15.7247C12.8918 16.2913 12.6085 16.9761 12.6085 17.7788C12.6085 18.1802 12.6855 18.558 12.8394 18.9122C12.9934 19.2663 13.1997 19.5733 13.4585 19.833L17.4252 23.7997C17.7085 24.083 18.0391 24.2247 18.4168 24.2247C18.7946 24.2247 19.1252 24.083 19.4085 23.7997Z" fill="black"/>
</svg>
