<svg width="62" height="62" viewBox="0 0 62 62" fill="none" xmlns="http://www.w3.org/2000/svg">
<path d="M60.5633 13.4585L52.3046 2.447C51.1423 0.917625 49.3376 0 47.4106 0H13.7644C11.8374 0 10.0327 0.917625 8.87038 2.447L0.61175 13.4585C0.214113 13.9785 0 14.6208 0 15.2938V18.3525C0 21.4418 1.19291 24.1947 3.05875 26.3664V55.0575C3.05875 58.4221 5.81163 61.175 9.17625 61.175H51.9988C55.3634 61.175 58.1163 58.4221 58.1163 55.0575V26.3664C59.9821 24.2253 61.175 21.4418 61.175 18.3525V15.2938C61.175 14.6208 60.9609 13.9785 60.5633 13.4585ZM47.4106 6.1175L55.0575 16.3031V18.3525C55.0575 21.7171 52.3046 24.47 48.94 24.47C45.5754 24.47 42.8225 21.7171 42.8225 18.3525V15.2938C42.8225 15.0491 42.8225 14.8044 42.7307 14.5597L40.6202 6.1175H47.4106ZM26.8558 6.1175H34.3192L36.705 15.6608V18.3525C36.705 21.7171 33.9521 24.47 30.5875 24.47C27.2229 24.47 24.47 21.7171 24.47 18.3525V15.6608L26.8558 6.1175ZM6.1175 16.3031L13.7644 6.1175H20.5548L18.4443 14.5597C18.3831 14.8044 18.3525 15.0491 18.3525 15.2938V18.3525C18.3525 21.7171 15.5996 24.47 12.235 24.47C8.87038 24.47 6.1175 21.7171 6.1175 18.3525V16.3031ZM39.7638 55.0575H21.4113V39.7638C21.4113 38.0814 22.7877 36.705 24.47 36.705H36.705C38.3873 36.705 39.7638 38.0814 39.7638 39.7638V55.0575Z" fill="#A4DE02"/>
</svg>
