<svg width="57" height="57" viewBox="0 0 57 57" fill="none" xmlns="http://www.w3.org/2000/svg">
<rect width="56.2111" height="56.2111" rx="15" fill="#4C9A2A"/>
<path d="M29.272 24.6051H35.6886L29.272 18.1885V24.6051ZM21.1053 16.4385H30.4386L37.4386 23.4385V37.4385C37.4386 38.0573 37.1928 38.6508 36.7552 39.0884C36.3176 39.526 35.7241 39.7718 35.1053 39.7718H21.1053C20.4865 39.7718 19.893 39.526 19.4554 39.0884C19.0178 38.6508 18.772 38.0573 18.772 37.4385V18.7718C18.772 17.4768 19.8103 16.4385 21.1053 16.4385ZM22.272 37.4385H24.6053V30.4385H22.272V37.4385ZM26.9386 37.4385H29.272V28.1051H26.9386V37.4385ZM31.6053 37.4385H33.9386V32.7718H31.6053V37.4385Z" fill="white"/>
</svg>
