<svg width="28" height="28" viewBox="0 0 28 28" fill="none" xmlns="http://www.w3.org/2000/svg">
<path fill-rule="evenodd" clip-rule="evenodd" d="M26.5944 7.371C26.3271 7.46693 26.0379 7.48497 25.7607 7.42301C25.4835 7.36105 25.2295 7.22164 25.0284 7.021L23.9244 5.915L15.5304 14.309C15.3911 14.4484 15.2257 14.559 15.0437 14.6344C14.8616 14.7099 14.6665 14.7487 14.4694 14.7487C14.2724 14.7487 14.0772 14.7099 13.8952 14.6344C13.7131 14.559 13.5477 14.4484 13.4084 14.309L10.2064 11.107L2.57843 18.735C2.44 18.8782 2.27443 18.9924 2.09138 19.0709C1.90834 19.1494 1.71149 19.1907 1.51232 19.1924C1.31315 19.194 1.11565 19.156 0.931345 19.0805C0.747037 19.0049 0.579612 18.8935 0.43884 18.7526C0.298068 18.6117 0.186767 18.4441 0.111433 18.2598C0.0360987 18.0754 -0.00176108 17.8778 6.29036e-05 17.6787C0.00188689 17.4795 0.0433581 17.2827 0.122057 17.0997C0.200755 16.9168 0.315105 16.7513 0.458434 16.613L9.14243 7.923C9.28173 7.78361 9.44714 7.67304 9.62919 7.59759C9.81124 7.52215 10.0064 7.48332 10.2034 7.48332C10.4005 7.48332 10.5956 7.52215 10.7777 7.59759C10.9597 7.67304 11.1251 7.78361 11.2644 7.923L14.4684 11.127L21.8024 3.793L20.6984 2.689C20.4974 2.48821 20.3575 2.23445 20.2951 1.95725C20.2327 1.68006 20.2502 1.39084 20.3458 1.12325C20.4413 0.855658 20.6109 0.620712 20.8348 0.445757C21.0587 0.270802 21.3277 0.163035 21.6104 0.135C23.4364 -0.045 24.4864 -0.045 26.2444 0.135C26.5875 0.170474 26.9079 0.323103 27.1516 0.567178C27.3953 0.811253 27.5475 1.13186 27.5824 1.475C27.7644 3.231 27.7624 4.283 27.5824 6.107C27.5543 6.38961 27.4465 6.65843 27.2716 6.88219C27.0967 7.10595 26.8619 7.27546 26.5944 7.371ZM23.3484 10.387C23.5751 10.1673 23.8652 10.0246 24.1776 9.97935C24.4901 9.93411 24.8088 9.98857 25.0884 10.135L27.0324 11.155C27.284 11.2874 27.4927 11.4885 27.6343 11.735C27.776 11.9814 27.8447 12.263 27.8324 12.547L27.2804 25.723C27.2644 26.11 27.0993 26.4758 26.8198 26.7438C26.5402 27.0118 26.1677 27.1613 25.7804 27.161H21.8364C21.7038 27.161 21.5766 27.1083 21.4829 27.0146C21.3891 26.9208 21.3364 26.7936 21.3364 26.661V12.549C21.3363 12.4819 21.3497 12.4154 21.3758 12.3535C21.4019 12.2917 21.4402 12.2357 21.4884 12.189L23.3484 10.387ZM18.8364 26.661C18.8364 26.7936 18.7838 26.9208 18.69 27.0146C18.5962 27.1083 18.469 27.161 18.3364 27.161H10.8364C10.7038 27.161 10.5766 27.1083 10.4829 27.0146C10.3891 26.9208 10.3364 26.7936 10.3364 26.661V15.033C10.3364 14.993 10.3664 14.961 10.4064 14.965C10.7324 14.981 11.0524 15.105 11.3164 15.335L14.6064 18.223C14.7008 18.306 14.8229 18.3505 14.9486 18.3475C15.0742 18.3446 15.1941 18.2944 15.2844 18.207L17.9884 15.583C18.059 15.5146 18.1482 15.4685 18.2449 15.4505C18.3415 15.4325 18.4413 15.4434 18.5318 15.4818C18.6223 15.5202 18.6995 15.5844 18.7537 15.6665C18.8078 15.7485 18.8366 15.8447 18.8364 15.943V26.661ZM6.97843 17.735L0.758434 24.087C0.483149 24.3672 0.328758 24.7442 0.328434 25.137V25.661C0.328434 26.489 1.00043 27.161 1.82843 27.161H7.33643C7.46904 27.161 7.59622 27.1083 7.68999 27.0146C7.78376 26.9208 7.83643 26.7936 7.83643 26.661V18.085C7.83662 17.9855 7.80712 17.8882 7.75169 17.8055C7.69626 17.7229 7.61743 17.6587 7.52529 17.6211C7.43315 17.5835 7.33189 17.5743 7.23447 17.5946C7.13705 17.6149 7.0479 17.6638 6.97843 17.735Z" fill="white"/>
</svg>
