<svg width="57" height="57" viewBox="0 0 57 57" fill="none" xmlns="http://www.w3.org/2000/svg">
<rect width="56.2111" height="56.2111" rx="15" fill="#76BA1B"/>
<path d="M37.439 16.4385H18.7723C17.6056 16.4385 16.439 17.4885 16.439 18.7718V22.2835C16.439 23.1235 16.9406 23.8468 17.6056 24.2551V37.4385C17.6056 38.7218 18.889 39.7718 19.939 39.7718H36.2723C37.3223 39.7718 38.6056 38.7218 38.6056 37.4385V24.2551C39.2706 23.8468 39.7723 23.1235 39.7723 22.2835V18.7718C39.7723 17.4885 38.6056 16.4385 37.439 16.4385ZM31.6056 30.4385H24.6056V28.1051H31.6056V30.4385ZM37.439 22.2718H18.7723V18.7718L37.439 18.7485V22.2718Z" fill="white"/>
</svg>
