<svg width="32" height="32" viewBox="0 0 32 32" fill="none" xmlns="http://www.w3.org/2000/svg">
<rect width="31.0801" height="31.0801" rx="7.31295" fill="#76BA1B"/>
<path d="M21.1962 10.5361C21.1962 10.5345 21.196 10.5332 21.1957 10.532C21.1957 10.4911 21.1914 10.4505 21.1834 10.4101C21.1798 10.3921 21.1731 10.3751 21.168 10.3576C21.1613 10.335 21.1561 10.3121 21.1469 10.29C21.1384 10.2695 21.1266 10.2507 21.116 10.2314C21.1068 10.2142 21.0991 10.1962 21.088 10.1795C21.0664 10.1473 21.0417 10.1175 21.0147 10.0897C21.0122 10.0872 21.0106 10.0841 21.0083 10.0818C20.9785 10.052 20.9456 10.0252 20.9104 10.0016C20.8952 9.99128 20.8787 9.98434 20.8628 9.97559C20.842 9.96402 20.8219 9.95143 20.7995 9.94217C20.7792 9.93369 20.7579 9.92906 20.7371 9.92289C20.7178 9.91723 20.6995 9.90978 20.6795 9.90566C20.6381 9.89744 20.5959 9.89307 20.554 9.89307H20.5535H12.4321C12.077 9.89307 11.7894 10.1808 11.7894 10.5358C11.7894 10.8909 12.077 11.1785 12.4321 11.1785H18.9996L10.0725 20.089C9.82128 20.3399 9.82077 20.7469 10.0717 20.9981C10.1972 21.1238 10.362 21.1868 10.5268 21.1868C10.6916 21.1868 10.8553 21.1241 10.981 20.9991L19.9108 12.0856V18.6572C19.9108 19.0123 20.1985 19.3 20.5535 19.3C20.9086 19.3 21.1962 19.0123 21.1962 18.6572V10.5361Z" fill="black"/>
</svg>
