<svg width="32" height="32" viewBox="0 0 32 32" fill="none" xmlns="http://www.w3.org/2000/svg">
<rect width="31.0759" height="31.0759" rx="7.31295" fill="#76BA1B"/>
<path d="M21.0281 17.8546C20.185 17.8546 19.3694 17.7175 18.6086 17.4708C18.4893 17.4306 18.3612 17.4247 18.2389 17.4538C18.1165 17.4829 18.0047 17.5458 17.9163 17.6353L16.8402 18.9855C14.9005 18.0602 13.0841 16.3124 12.1177 14.3041L13.4542 13.1663C13.6393 12.9744 13.6941 12.7071 13.6187 12.4672C13.3651 11.7064 13.2349 10.8908 13.2349 10.0477C13.2349 9.67758 12.9265 9.36914 12.5563 9.36914H10.1848C9.81466 9.36914 9.36914 9.53364 9.36914 10.0477C9.36914 16.4152 14.6674 21.7066 21.0281 21.7066C21.5147 21.7066 21.7066 21.2748 21.7066 20.8978V18.5332C21.7066 18.163 21.3982 17.8546 21.0281 17.8546Z" fill="white"/>
</svg>
