<svg width="21" height="21" viewBox="0 0 21 21" fill="none" xmlns="http://www.w3.org/2000/svg">
<path d="M10.2592 4.99631C7.3486 4.99631 5.00089 7.34402 5.00089 10.2546C5.00089 13.1652 7.3486 15.5129 10.2592 15.5129C13.1698 15.5129 15.5175 13.1652 15.5175 10.2546C15.5175 7.34402 13.1698 4.99631 10.2592 4.99631ZM10.2592 13.6732C8.37829 13.6732 6.84061 12.1401 6.84061 10.2546C6.84061 8.36914 8.37371 6.83604 10.2592 6.83604C12.1447 6.83604 13.6778 8.36914 13.6778 10.2546C13.6778 12.1401 12.1401 13.6732 10.2592 13.6732ZM16.9591 4.78122C16.9591 5.46311 16.4099 6.0077 15.7326 6.0077C15.0507 6.0077 14.5061 5.45853 14.5061 4.78122C14.5061 4.10391 15.0553 3.55474 15.7326 3.55474C16.4099 3.55474 16.9591 4.10391 16.9591 4.78122ZM20.4417 6.02601C20.364 4.38307 19.9887 2.92777 18.7851 1.72874C17.5861 0.529721 16.1308 0.154454 14.4878 0.0720787C12.7945 -0.0240262 7.71929 -0.0240262 6.02601 0.0720787C4.38765 0.149878 2.93234 0.525145 1.72874 1.72417C0.525145 2.92319 0.154454 4.3785 0.0720787 6.02143C-0.0240262 7.71471 -0.0240262 12.79 0.0720787 14.4832C0.149878 16.1262 0.525145 17.5815 1.72874 18.7805C2.93234 19.9795 4.38307 20.3548 6.02601 20.4372C7.71929 20.5333 12.7945 20.5333 14.4878 20.4372C16.1308 20.3594 17.5861 19.9841 18.7851 18.7805C19.9841 17.5815 20.3594 16.1262 20.4417 14.4832C20.5379 12.79 20.5379 7.71929 20.4417 6.02601ZM18.2542 16.3001C17.8973 17.1971 17.2062 17.8881 16.3047 18.2496C14.9546 18.7851 11.7511 18.6615 10.2592 18.6615C8.76729 18.6615 5.55921 18.7805 4.21374 18.2496C3.31676 17.8927 2.62572 17.2016 2.26419 16.3001C1.72874 14.95 1.85231 11.7465 1.85231 10.2546C1.85231 8.76271 1.73332 5.55464 2.26419 4.20917C2.62115 3.31219 3.31219 2.62115 4.21374 2.25961C5.56379 1.72417 8.76729 1.84773 10.2592 1.84773C11.7511 1.84773 14.9592 1.72874 16.3047 2.25961C17.2016 2.61657 17.8927 3.30761 18.2542 4.20917C18.7897 5.55921 18.6661 8.76271 18.6661 10.2546C18.6661 11.7465 18.7897 14.9546 18.2542 16.3001Z" fill="black"/>
</svg>
