<svg width="34" height="34" viewBox="0 0 34 34" fill="none" xmlns="http://www.w3.org/2000/svg">
<path d="M7.08333 7.08366H9.91667V11.3337H24.0833V7.08366H26.9167V14.167H29.75V7.08366C29.75 5.52533 28.475 4.25033 26.9167 4.25033H20.995C20.4 2.60699 18.8417 1.41699 17 1.41699C15.1583 1.41699 13.6 2.60699 13.005 4.25033H7.08333C5.525 4.25033 4.25 5.52533 4.25 7.08366V26.917C4.25 28.4753 5.525 29.7503 7.08333 29.7503H15.5833V26.917H7.08333V7.08366ZM17 4.25033C17.7792 4.25033 18.4167 4.88783 18.4167 5.66699C18.4167 6.44616 17.7792 7.08366 17 7.08366C16.2208 7.08366 15.5833 6.44616 15.5833 5.66699C15.5833 4.88783 16.2208 4.25033 17 4.25033Z" fill="black"/>
<path d="M29.7502 16.292L21.9727 24.0837L17.7085 19.8337L15.5835 21.9587L21.9727 28.3337L31.8752 18.417L29.7502 16.292Z" fill="black"/>
</svg>
