<svg width="74" height="74" viewBox="0 0 74 74" fill="none" xmlns="http://www.w3.org/2000/svg">
<path d="M0 19.5895C0 8.77054 8.77053 0 19.5895 0H53.8205C64.6395 0 73.41 8.77053 73.41 19.5895V53.8205C73.41 64.6395 64.6395 73.41 53.8205 73.41H19.5895C8.77054 73.41 0 64.6395 0 53.8205V19.5895Z" fill="#4C9A2A" fill-opacity="0.2"/>
<path d="M36.705 26.1738C34.1941 28.2947 31.3418 29.3917 28.1727 29.3917C27.1488 29.3917 26.0518 29.1967 24.8085 28.8066C25.8811 38.2653 29.8304 44.7011 36.705 48.4554V26.1738ZM20.8593 23.2972C20.8593 23.2972 25.7349 25.735 28.1727 25.735C31.415 25.735 34.2672 24.1017 36.705 20.8594C39.1428 24.1017 41.9951 25.735 45.2373 25.735C47.6751 25.735 52.5508 23.2972 52.5508 23.2972C52.5508 37.924 47.2607 47.6753 36.705 52.5509C26.1493 47.6753 20.8593 37.924 20.8593 23.2972Z" fill="#4C9A2A"/>
</svg>
