<svg width="49" height="62" viewBox="0 0 49 62" fill="none" xmlns="http://www.w3.org/2000/svg">
<path d="M6.1175 61.175C4.43519 61.175 2.99554 60.5765 1.79854 59.3795C0.601554 58.1825 0.00203917 56.7419 0 55.0575V6.1175C0 4.43519 0.599514 2.99554 1.79854 1.79855C2.99757 0.601554 4.43723 0.00203917 6.1175 0H33.6463C35.3286 0 36.7692 0.599515 37.9683 1.79855C39.1673 2.99758 39.7658 4.43723 39.7638 6.1175V9.17625C39.7638 10.0429 39.4701 10.7699 38.8828 11.3571C38.2956 11.9444 37.5696 12.237 36.705 12.235C35.0227 12.235 33.583 12.8345 32.386 14.0335C31.1891 15.2326 30.5895 16.6722 30.5875 18.3525V37.5462L26.7641 35.558C24.8269 34.5894 22.7877 34.258 20.6466 34.5639C18.5054 34.8698 16.6702 35.7874 15.1408 37.3167L13.9938 38.4638C12.8722 39.5853 12.286 40.9363 12.235 42.5166C12.184 44.097 12.6683 45.4989 13.6879 46.7224L21.4877 56.1281C22.3544 57.1477 22.5073 58.2437 21.9465 59.4162C21.3858 60.5887 20.4426 61.175 19.1172 61.175H6.1175ZM22.0628 14.4128C22.648 13.8276 22.9406 13.1016 22.9406 12.235C22.9406 11.3684 22.647 10.6424 22.0597 10.0572C21.4724 9.47193 20.7465 9.17829 19.8819 9.17625C19.0173 9.17421 18.2913 9.46785 17.704 10.0572C17.1168 10.6465 16.8231 11.3724 16.8231 12.235C16.8231 13.0976 17.1168 13.8245 17.704 14.4159C18.2913 15.0072 19.0173 15.2999 19.8819 15.2938C20.7465 15.2876 21.4734 14.994 22.0628 14.4128ZM36.5521 61.175C35.6344 61.175 34.7556 60.9843 33.9154 60.603C33.0753 60.2217 32.3738 59.6732 31.811 58.9574L19.3466 44.046C19.0407 43.6891 18.9133 43.2813 18.9643 42.8225C19.0152 42.3637 19.1937 41.9813 19.4995 41.6755C20.1113 41.0637 20.825 40.7069 21.6407 40.6049C22.4563 40.5029 23.2465 40.6559 24.0112 41.0637L32.2698 45.193C33.2894 45.7028 34.2835 45.6651 35.2521 45.0799C36.2207 44.4946 36.705 43.6147 36.705 42.4402V21.4113C36.705 20.5446 36.9986 19.8187 37.5859 19.2334C38.1732 18.6482 38.8991 18.3545 39.7638 18.3525C42.3127 18.3525 44.4793 19.2446 46.2636 21.0289C48.0479 22.8132 48.94 24.9798 48.94 27.5288V51.9988C48.94 54.5477 48.0479 56.7143 46.2636 58.4986C44.4793 60.2829 42.3127 61.175 39.7638 61.175H36.5521Z" fill="#A4DE02"/>
</svg>
