<svg width="74" height="74" viewBox="0 0 74 74" fill="none" xmlns="http://www.w3.org/2000/svg">
<path d="M0 19.5895C0 8.77054 8.77053 0 19.5895 0H53.8205C64.6395 0 73.41 8.77053 73.41 19.5895V53.8205C73.41 64.6395 64.6395 73.41 53.8205 73.41H19.5895C8.77054 73.41 0 64.6395 0 53.8205V19.5895Z" fill="#4C9A2A" fill-opacity="0.2"/>
<g clip-path="url(#clip0_208_668)">
<path fill-rule="evenodd" clip-rule="evenodd" d="M22.9924 23.9072C22.8711 23.9072 22.7549 23.9554 22.6692 24.0411C22.5834 24.1268 22.5353 24.2431 22.5353 24.3643V31.6777H26.192V24.3643C26.192 24.2431 26.1438 24.1268 26.0581 24.0411C25.9724 23.9554 25.8561 23.9072 25.7349 23.9072H22.9924ZM26.192 41.7337H22.5353V49.0471C22.5353 49.1684 22.5834 49.2846 22.6692 49.3703C22.7549 49.4561 22.8711 49.5042 22.9924 49.5042H25.7349C25.8561 49.5042 25.9724 49.4561 26.0581 49.3703C26.1438 49.2846 26.192 49.1684 26.192 49.0471V41.7337ZM29.8487 41.7337H30.3058V49.2757C30.3058 49.3363 30.2817 49.3944 30.2389 49.4373C30.196 49.4801 30.1379 49.5042 30.0772 49.5042C30.0166 49.5042 29.9585 49.4801 29.9156 49.4373C29.8728 49.3944 29.8487 49.3363 29.8487 49.2757V41.7337ZM30.3058 31.6777H29.8487V24.1358C29.8487 24.0752 29.8728 24.017 29.9156 23.9742C29.9585 23.9313 30.0166 23.9072 30.0772 23.9072C30.1379 23.9072 30.196 23.9313 30.2389 23.9742C30.2817 24.017 30.3058 24.0752 30.3058 24.1358V31.6777ZM33.9625 41.7337V49.2757C33.9625 49.3363 33.9866 49.3944 34.0294 49.4373C34.0723 49.4801 34.1304 49.5042 34.191 49.5042C34.2517 49.5042 34.3098 49.4801 34.3527 49.4373C34.3955 49.3944 34.4196 49.3363 34.4196 49.2757V41.7337H33.9625ZM34.4196 31.6777H33.9625V24.1358C33.9625 24.0752 33.9866 24.017 34.0294 23.9742C34.0723 23.9313 34.1304 23.9072 34.191 23.9072C34.2517 23.9072 34.3098 23.9313 34.3527 23.9742C34.3955 24.017 34.4196 24.0752 34.4196 24.1358V31.6777ZM38.0763 41.7337V49.0471C38.0763 49.1684 38.1245 49.2846 38.2102 49.3703C38.2959 49.4561 38.4122 49.5042 38.5334 49.5042H41.2759C41.3972 49.5042 41.5134 49.4561 41.5991 49.3703C41.6849 49.2846 41.733 49.1684 41.733 49.0471V41.7337H38.0763ZM41.733 31.6777H38.0763V24.3643C38.0763 24.2431 38.1245 24.1268 38.2102 24.0411C38.2959 23.9554 38.4122 23.9072 38.5334 23.9072H41.2759C41.3972 23.9072 41.5134 23.9554 41.5991 24.0411C41.6849 24.1268 41.733 24.2431 41.733 24.3643V31.6777ZM45.3897 41.7337V49.0471C45.3897 49.1684 45.4379 49.2846 45.5236 49.3703C45.6093 49.4561 45.7256 49.5042 45.8468 49.5042H50.4177C50.5389 49.5042 50.6552 49.4561 50.7409 49.3703C50.8266 49.2846 50.8748 49.1684 50.8748 49.0471V41.7337H45.3897ZM50.8748 31.6777H45.3897V24.3643C45.3897 24.2431 45.4379 24.1268 45.5236 24.0411C45.6093 23.9554 45.7256 23.9072 45.8468 23.9072H50.4177C50.5389 23.9072 50.6552 23.9554 50.7409 24.0411C50.8266 24.1268 50.8748 24.2431 50.8748 24.3643V31.6777Z" fill="#4C9A2A"/>
<path d="M22.5353 31.6779H21.6211V32.592H22.5353V31.6779ZM26.192 31.6779V32.592H27.1062V31.6779H26.192ZM26.192 41.7338H27.1062V40.8196H26.192V41.7338ZM22.5353 41.7338V40.8196H21.6211V41.7338H22.5353ZM30.3058 41.7338H31.22V40.8196H30.3058V41.7338ZM29.8487 41.7338V40.8196H28.9345V41.7338H29.8487ZM29.8487 31.6779H28.9345V32.592H29.8487V31.6779ZM30.3058 31.6779V32.592H31.22V31.6779H30.3058ZM33.9625 41.7338V40.8196H33.0483V41.7338H33.9625ZM34.4196 41.7338H35.3338V40.8196H34.4196V41.7338ZM33.9625 31.6779H33.0483V32.592H33.9625V31.6779ZM34.4196 31.6779V32.592H35.3338V31.6779H34.4196ZM38.0763 41.7338V40.8196H37.1621V41.7338H38.0763ZM41.733 41.7338H42.6472V40.8196H41.733V41.7338ZM38.0763 31.6779H37.1621V32.592H38.0763V31.6779ZM41.733 31.6779V32.592H42.6472V31.6779H41.733ZM45.3897 41.7338V40.8196H44.4755V41.7338H45.3897ZM50.8748 41.7338H51.789V40.8196H50.8748V41.7338ZM45.3897 31.6779H44.4755V32.592H45.3897V31.6779ZM50.8748 31.6779V32.592H51.789V31.6779H50.8748ZM23.4494 24.3644C23.4494 24.4857 23.4013 24.6019 23.3156 24.6876C23.2299 24.7734 23.1136 24.8215 22.9924 24.8215V22.9932C22.6287 22.9932 22.2799 23.1376 22.0227 23.3948C21.7656 23.652 21.6211 24.0007 21.6211 24.3644H23.4494ZM23.4494 31.6779V24.3644H21.6211V31.6779H23.4494ZM22.5353 32.592H26.192V30.7637H22.5353V32.592ZM25.2778 24.3644V31.6779H27.1062V24.3644H25.2778ZM25.7349 24.8215C25.6137 24.8215 25.4974 24.7734 25.4117 24.6876C25.326 24.6019 25.2778 24.4857 25.2778 24.3644H27.1062C27.1062 24.0007 26.9617 23.652 26.7045 23.3948C26.4474 23.1376 26.0986 22.9932 25.7349 22.9932V24.8215ZM22.9924 24.8215H25.7349V22.9932H22.9924V24.8215ZM26.192 40.8196H22.5353V42.648H26.192V40.8196ZM23.4494 49.0472V41.7338H21.6211V49.0472H23.4494ZM22.9924 48.5902C23.1136 48.5902 23.2299 48.6383 23.3156 48.724C23.4013 48.8097 23.4494 48.926 23.4494 49.0472H21.6211C21.6211 49.4109 21.7656 49.7597 22.0227 50.0169C22.2799 50.274 22.6287 50.4185 22.9924 50.4185V48.5902ZM25.7349 48.5902H22.9924V50.4185H25.7349V48.5902ZM25.2778 49.0472C25.2778 48.926 25.326 48.8097 25.4117 48.724C25.4974 48.6383 25.6137 48.5902 25.7349 48.5902V50.4185C26.0986 50.4185 26.4474 50.274 26.7045 50.0169C26.9617 49.7597 27.1062 49.4109 27.1062 49.0472H25.2778ZM25.2778 41.7338V49.0472H27.1062V41.7338H25.2778ZM30.3058 40.8196H29.8487V42.648H30.3058V40.8196ZM29.3916 41.7338V49.2758H31.22V41.7338H29.3916ZM29.3916 49.2758C29.3916 49.0939 29.4638 48.9195 29.5924 48.791C29.721 48.6624 29.8954 48.5902 30.0772 48.5902V50.4185C30.3803 50.4185 30.671 50.2981 30.8853 50.0838C31.0996 49.8695 31.22 49.5789 31.22 49.2758H29.3916ZM30.0772 48.5902C30.2591 48.5902 30.4335 48.6624 30.5621 48.791C30.6906 48.9195 30.7629 49.0939 30.7629 49.2758H28.9345C28.9345 49.5789 29.0549 49.8695 29.2692 50.0838C29.4835 50.2981 29.7742 50.4185 30.0772 50.4185V48.5902ZM30.7629 49.2758V41.7338H28.9345V49.2758H30.7629ZM29.8487 32.592H30.3058V30.7637H29.8487V32.592ZM30.7629 31.6779V24.1359H28.9345V31.6779H30.7629ZM30.7629 24.1359C30.7629 24.3177 30.6906 24.4921 30.5621 24.6207C30.4335 24.7493 30.2591 24.8215 30.0772 24.8215V22.9932C29.7742 22.9932 29.4835 23.1136 29.2692 23.3279C29.0549 23.5422 28.9345 23.8328 28.9345 24.1359H30.7629ZM30.0772 24.8215C29.8954 24.8215 29.721 24.7493 29.5924 24.6207C29.4638 24.4921 29.3916 24.3177 29.3916 24.1359H31.22C31.22 23.8328 31.0996 23.5422 30.8853 23.3279C30.671 23.1136 30.3803 22.9932 30.0772 22.9932V24.8215ZM29.3916 24.1359V31.6779H31.22V24.1359H29.3916ZM33.0483 41.7338V49.2758H34.8767V41.7338H33.0483ZM33.0483 49.2758C33.0483 49.5789 33.1687 49.8695 33.383 50.0838C33.5973 50.2981 33.888 50.4185 34.191 50.4185V48.5902C34.3729 48.5902 34.5473 48.6624 34.6759 48.791C34.8044 48.9195 34.8767 49.0939 34.8767 49.2758H33.0483ZM34.191 50.4185C34.4941 50.4185 34.7848 50.2981 34.9991 50.0838C35.2134 49.8695 35.3338 49.5789 35.3338 49.2758H33.5054C33.5054 49.0939 33.5776 48.9195 33.7062 48.791C33.8348 48.6624 34.0092 48.5902 34.191 48.5902V50.4185ZM35.3338 49.2758V41.7338H33.5054V49.2758H35.3338ZM34.4196 40.8196H33.9625V42.648H34.4196V40.8196ZM33.9625 32.592H34.4196V30.7637H33.9625V32.592ZM33.0483 24.1359V31.6779H34.8767V24.1359H33.0483ZM34.191 22.9932C33.888 22.9932 33.5973 23.1136 33.383 23.3279C33.1687 23.5422 33.0483 23.8328 33.0483 24.1359H34.8767C34.8767 24.3177 34.8044 24.4921 34.6759 24.6207C34.5473 24.7493 34.3729 24.8215 34.191 24.8215V22.9932ZM35.3338 24.1359C35.3338 23.8328 35.2134 23.5422 34.9991 23.3279C34.7848 23.1136 34.4941 22.9932 34.191 22.9932V24.8215C34.0092 24.8215 33.8348 24.7493 33.7062 24.6207C33.5776 24.4921 33.5054 24.3177 33.5054 24.1359H35.3338ZM35.3338 31.6779V24.1359H33.5054V31.6779H35.3338ZM38.9905 49.0472V41.7338H37.1621V49.0472H38.9905ZM38.5334 48.5902C38.6546 48.5902 38.7709 48.6383 38.8566 48.724C38.9423 48.8097 38.9905 48.926 38.9905 49.0472H37.1621C37.1621 49.4109 37.3066 49.7597 37.5638 50.0169C37.8209 50.274 38.1697 50.4185 38.5334 50.4185V48.5902ZM41.2759 48.5902H38.5334V50.4185H41.2759V48.5902ZM40.8188 49.0472C40.8188 48.926 40.867 48.8097 40.9527 48.724C41.0384 48.6383 41.1547 48.5902 41.2759 48.5902V50.4185C41.6396 50.4185 41.9884 50.274 42.2456 50.0169C42.5027 49.7597 42.6472 49.4109 42.6472 49.0472H40.8188ZM40.8188 41.7338V49.0472H42.6472V41.7338H40.8188ZM41.733 40.8196H38.0763V42.648H41.733V40.8196ZM38.0763 32.592H41.733V30.7637H38.0763V32.592ZM38.9905 31.6779V24.3644H37.1621V31.6779H38.9905ZM38.9905 24.3644C38.9905 24.4857 38.9423 24.6019 38.8566 24.6876C38.7709 24.7734 38.6546 24.8215 38.5334 24.8215V22.9932C38.1697 22.9932 37.8209 23.1376 37.5638 23.3948C37.3066 23.652 37.1621 24.0007 37.1621 24.3644H38.9905ZM38.5334 24.8215H41.2759V22.9932H38.5334V24.8215ZM41.2759 24.8215C41.1547 24.8215 41.0384 24.7734 40.9527 24.6876C40.867 24.6019 40.8188 24.4857 40.8188 24.3644H42.6472C42.6472 24.0007 42.5027 23.652 42.2456 23.3948C41.9884 23.1376 41.6396 22.9932 41.2759 22.9932V24.8215ZM40.8188 24.3644V31.6779H42.6472V24.3644H40.8188ZM44.4755 41.7338V49.0472H46.3039V41.7338H44.4755ZM44.4755 49.0472C44.4755 49.4109 44.62 49.7597 44.8772 50.0169C45.1343 50.274 45.4831 50.4185 45.8468 50.4185V48.5902C45.968 48.5902 46.0843 48.6383 46.17 48.724C46.2557 48.8097 46.3039 48.926 46.3039 49.0472H44.4755ZM45.8468 50.4185H50.4177V48.5902H45.8468V50.4185ZM50.4177 50.4185C50.7814 50.4185 51.1302 50.274 51.3873 50.0169C51.6445 49.7597 51.789 49.4109 51.789 49.0472H49.9606C49.9606 48.926 50.0088 48.8097 50.0945 48.724C50.1802 48.6383 50.2965 48.5902 50.4177 48.5902V50.4185ZM51.789 49.0472V41.7338H49.9606V49.0472H51.789ZM50.8748 40.8196H45.3897V42.648H50.8748V40.8196ZM45.3897 32.592H50.8748V30.7637H45.3897V32.592ZM44.4755 24.3644V31.6779H46.3039V24.3644H44.4755ZM45.8468 22.9932C45.4831 22.9932 45.1343 23.1376 44.8772 23.3948C44.62 23.652 44.4755 24.0007 44.4755 24.3644H46.3039C46.3039 24.4857 46.2557 24.6019 46.17 24.6876C46.0843 24.7734 45.968 24.8215 45.8468 24.8215V22.9932ZM50.4177 22.9932H45.8468V24.8215H50.4177V22.9932ZM51.789 24.3644C51.789 24.0007 51.6445 23.652 51.3873 23.3948C51.1302 23.1376 50.7814 22.9932 50.4177 22.9932V24.8215C50.2965 24.8215 50.1802 24.7734 50.0945 24.6876C50.0088 24.6019 49.9606 24.4857 49.9606 24.3644H51.789ZM51.789 31.6779V24.3644H49.9606V31.6779H51.789Z" fill="#4C9A2A"/>
<path d="M53.1602 36.7061H20.2498" stroke="#4C9A2A" stroke-width="2.74253" stroke-linecap="round"/>
</g>
<defs>
<clipPath id="clip0_208_668">
<rect width="36.5671" height="36.5671" fill="white" transform="translate(18.4214 18.4219)"/>
</clipPath>
</defs>
</svg>
