<svg width="62" height="49" viewBox="0 0 62 49" fill="none" xmlns="http://www.w3.org/2000/svg">
<path d="M19.1294 9.17625C22.0872 9.17625 24.4822 11.5713 24.4822 14.5291V43.5872C24.4822 45.0068 23.9183 46.3684 22.9144 47.3722C21.9106 48.376 20.5491 48.94 19.1294 48.94H5.35281C3.93316 48.94 2.57165 48.376 1.5678 47.3722C0.563956 46.3684 0 45.0068 0 43.5872V14.5291C0 11.5713 2.39806 9.17625 5.35281 9.17625H19.1294ZM13.0058 38.2191H11.4764L11.1644 38.2405C10.6154 38.316 10.1122 38.5878 9.74796 39.0056C9.38373 39.4234 9.18307 39.9589 9.18307 40.5131C9.18307 41.0674 9.38373 41.6029 9.74796 42.0207C10.1122 42.4385 10.6154 42.7103 11.1644 42.7858L11.4764 42.8072H13.0058L13.3178 42.7858C13.8669 42.7103 14.37 42.4385 14.7343 42.0207C15.0985 41.6029 15.2992 41.0674 15.2992 40.5131C15.2992 39.9589 15.0985 39.4234 14.7343 39.0056C14.37 38.5878 13.8669 38.316 13.3178 38.2405L13.0058 38.2191ZM54.2928 5.19948e-08C56.0367 -0.000214179 57.7156 0.661593 58.9903 1.85167C60.265 3.04175 61.0404 4.67136 61.1597 6.41114L61.175 6.88219V32.8816C61.1752 34.6254 60.5134 36.3044 59.3233 37.579C58.1332 38.8537 56.5036 39.6291 54.7639 39.7485L54.2928 39.7638H27.5288V13.7644C27.5291 11.8234 26.7914 9.95497 25.4651 8.53782C24.1388 7.12068 22.3233 6.2609 20.3866 6.13279L19.8788 6.1175H12.2748C12.4533 4.52101 13.1846 3.03726 14.3421 1.92333C15.4996 0.809408 17.0103 0.135492 18.6125 0.0183527L19.1172 5.19948e-08H54.2928ZM40.5284 29.0581H32.8816C32.3006 29.0591 31.7416 29.2804 31.3175 29.6775C30.8934 30.0745 30.6357 30.6177 30.5965 31.1973C30.5573 31.777 30.7394 32.3499 31.1062 32.8005C31.473 33.251 31.9971 33.5457 32.5726 33.6248L32.8816 33.6463H40.5284C41.1097 33.6461 41.6692 33.4253 42.0939 33.0285C42.5186 32.6317 42.7768 32.0884 42.8165 31.5086C42.8561 30.9287 42.6741 30.3554 42.3073 29.9045C41.9405 29.4536 41.4162 29.1588 40.8404 29.0795L40.5284 29.0581Z" fill="#A4DE02"/>
</svg>
