<svg width="19" height="24" viewBox="0 0 19 24" fill="none" xmlns="http://www.w3.org/2000/svg">
<path fill-rule="evenodd" clip-rule="evenodd" d="M8.87367 0.094371C9.01892 0.0321063 9.1753 0 9.33333 0C9.49137 0 9.64775 0.0321063 9.793 0.094371L17.2527 3.2922C17.6725 3.47217 18.0302 3.7714 18.2816 4.15278C18.533 4.53417 18.6668 4.98094 18.6667 5.4377V13.441C18.6665 14.8806 18.2859 16.2946 17.5632 17.5396C16.8406 18.7847 15.8017 19.8166 14.5518 20.5309L9.912 23.1815C9.73576 23.2822 9.5363 23.3352 9.33333 23.3352C9.13036 23.3352 8.93091 23.2822 8.75467 23.1815L4.11483 20.5309C2.86459 19.8164 1.82548 18.7841 1.10284 17.5386C0.380201 16.2931 -0.000270079 14.8787 1.4384e-07 13.4387V5.4377C5.0568e-05 4.98114 0.134046 4.53462 0.385386 4.15346C0.636725 3.7723 0.994365 3.47326 1.414 3.29337L8.87367 0.094371ZM13.6582 10.1592C13.8707 9.93917 13.9883 9.64447 13.9856 9.33857C13.983 9.03267 13.8603 8.74006 13.644 8.52375C13.4276 8.30744 13.135 8.18474 12.8291 8.18209C12.5232 8.17943 12.2285 8.29702 12.0085 8.50954L8.16667 12.3514L6.65817 10.8429C6.43813 10.6304 6.14343 10.5128 5.83753 10.5154C5.53164 10.5181 5.23902 10.6408 5.02271 10.8571C4.8064 11.0734 4.68371 11.366 4.68105 11.6719C4.67839 11.9778 4.79598 12.2725 5.0085 12.4925L7.34183 14.8259C7.56062 15.0446 7.85731 15.1675 8.16667 15.1675C8.47602 15.1675 8.77272 15.0446 8.9915 14.8259L13.6582 10.1592Z" fill="white"/>
</svg>
