<svg width="57" height="57" viewBox="0 0 57 57" fill="none" xmlns="http://www.w3.org/2000/svg">
<rect width="56.2111" height="56.2111" rx="15" fill="black"/>
<g clip-path="url(#clip0_165_553)">
<path fill-rule="evenodd" clip-rule="evenodd" d="M42.1055 28.1055C42.1055 31.8185 40.6305 35.3795 38.005 38.005C35.3795 40.6305 31.8185 42.1055 28.1055 42.1055C24.3924 42.1055 20.8315 40.6305 18.206 38.005C15.5805 35.3795 14.1055 31.8185 14.1055 28.1055C14.1055 24.3924 15.5805 20.8315 18.206 18.206C20.8315 15.5805 24.3924 14.1055 28.1055 14.1055C31.8185 14.1055 35.3795 15.5805 38.005 18.206C40.6305 20.8315 42.1055 24.3924 42.1055 28.1055ZM29.6055 20.6055C29.6055 20.2076 29.4474 19.8261 29.1661 19.5448C28.8848 19.2635 28.5033 19.1055 28.1055 19.1055C27.7076 19.1055 27.3261 19.2635 27.0448 19.5448C26.7635 19.8261 26.6055 20.2076 26.6055 20.6055V21.6255C25.7248 21.7202 24.9065 22.1251 24.297 22.7678C23.6874 23.4104 23.3263 24.249 23.2782 25.1334C23.2301 26.0179 23.4982 26.8906 24.0344 27.5956C24.5707 28.3005 25.3403 28.7918 26.2055 28.9815L29.1535 29.6275C29.3956 29.6791 29.6099 29.8187 29.755 30.0192C29.9002 30.2197 29.9658 30.4669 29.9391 30.713C29.9125 30.9591 29.7956 31.1866 29.6109 31.3515C29.4262 31.5163 29.187 31.6068 28.9395 31.6055H27.2715C27.0649 31.6054 26.8634 31.5413 26.6947 31.422C26.5261 31.3027 26.3985 31.1342 26.3295 30.9395C26.1969 30.5642 25.9206 30.257 25.5615 30.0854C25.2023 29.9138 24.7898 29.8919 24.4145 30.0245C24.0392 30.1571 23.732 30.4333 23.5604 30.7925C23.3888 31.1516 23.3669 31.5642 23.4995 31.9395C23.9775 33.2875 25.1595 34.3075 26.6055 34.5495V35.6055C26.6055 36.0033 26.7635 36.3848 27.0448 36.6661C27.3261 36.9474 27.7076 37.1055 28.1055 37.1055C28.5033 37.1055 28.8848 36.9474 29.1661 36.6661C29.4474 36.3848 29.6055 36.0033 29.6055 35.6055V34.5495C30.5209 34.3937 31.3537 33.9245 31.9611 33.2222C32.5686 32.5199 32.9129 31.6282 32.9351 30.6999C32.9574 29.7716 32.6561 28.8645 32.0829 28.1339C31.5098 27.4033 30.7004 26.8948 29.7935 26.6955L26.8475 26.0515C26.6722 26.0119 26.5177 25.9093 26.4132 25.7631C26.3088 25.617 26.2617 25.4375 26.2809 25.2589C26.3002 25.0803 26.3845 24.915 26.5177 24.7946C26.6509 24.6741 26.8238 24.6068 27.0035 24.6055H28.9395C29.146 24.6056 29.3475 24.6697 29.5162 24.7889C29.6849 24.9082 29.8125 25.0768 29.8815 25.2715C29.9471 25.4573 30.0487 25.6284 30.1805 25.7749C30.3123 25.9215 30.4716 26.0406 30.6495 26.1256C30.8273 26.2105 31.0201 26.2597 31.2169 26.2701C31.4137 26.2805 31.6106 26.2521 31.7965 26.1865C31.9823 26.1208 32.1534 26.0192 32.2999 25.8874C32.4465 25.7556 32.5656 25.5963 32.6506 25.4185C32.7355 25.2406 32.7847 25.0478 32.7951 24.851C32.8055 24.6542 32.7771 24.4573 32.7115 24.2715C32.4735 23.599 32.06 23.0024 31.5139 22.5435C30.9678 22.0846 30.3089 21.78 29.6055 21.6615V20.6055Z" fill="#A4DE02"/>
</g>
<defs>
<clipPath id="clip0_165_553">
<rect width="28" height="28" fill="white" transform="translate(14.1055 14.1055)"/>
</clipPath>
</defs>
</svg>
