<svg width="23" height="25" viewBox="0 0 23 25" fill="none" xmlns="http://www.w3.org/2000/svg">
<path d="M17.5502 0.341833C17.2083 0.683667 17.2083 1.23317 17.2083 2.33333V17.5C17.2083 18.6002 17.2083 19.1497 17.5502 19.4915C17.892 19.8333 18.4415 19.8333 19.5417 19.8333C20.6418 19.8333 21.1913 19.8333 21.5332 19.4915C21.875 19.1497 21.875 18.6002 21.875 17.5V2.33333C21.875 1.23317 21.875 0.683667 21.5332 0.341833C21.1913 -3.47694e-08 20.6418 0 19.5417 0C18.4415 0 17.892 -3.47694e-08 17.5502 0.341833ZM9.04167 5.83333C9.04167 4.73317 9.04167 4.18367 9.3835 3.84183C9.72533 3.5 10.2748 3.5 11.375 3.5C12.4752 3.5 13.0247 3.5 13.3665 3.84183C13.7083 4.18367 13.7083 4.73317 13.7083 5.83333V17.5C13.7083 18.6002 13.7083 19.1497 13.3665 19.4915C13.0247 19.8333 12.4752 19.8333 11.375 19.8333C10.2748 19.8333 9.72533 19.8333 9.3835 19.4915C9.04167 19.1497 9.04167 18.6002 9.04167 17.5V5.83333ZM1.21683 8.5085C0.875 8.85033 0.875 9.39983 0.875 10.5V17.5C0.875 18.6002 0.875 19.1497 1.21683 19.4915C1.55867 19.8333 2.10817 19.8333 3.20833 19.8333C4.3085 19.8333 4.858 19.8333 5.19983 19.4915C5.54167 19.1497 5.54167 18.6002 5.54167 17.5V10.5C5.54167 9.39983 5.54167 8.85033 5.19983 8.5085C4.858 8.16667 4.3085 8.16667 3.20833 8.16667C2.10817 8.16667 1.55867 8.16667 1.21683 8.5085ZM0.875 22.4583C0.642936 22.4583 0.420376 22.5505 0.256281 22.7146C0.0921871 22.8787 0 23.1013 0 23.3333C0 23.5654 0.0921871 23.788 0.256281 23.9521C0.420376 24.1161 0.642936 24.2083 0.875 24.2083H21.875C22.1071 24.2083 22.3296 24.1161 22.4937 23.9521C22.6578 23.788 22.75 23.5654 22.75 23.3333C22.75 23.1013 22.6578 22.8787 22.4937 22.7146C22.3296 22.5505 22.1071 22.4583 21.875 22.4583H0.875Z" fill="white"/>
</svg>
