<svg width="34" height="34" viewBox="0 0 34 34" fill="none" xmlns="http://www.w3.org/2000/svg">
<path d="M11.3332 7.08301H8.49984C7.74839 7.08301 7.02772 7.38152 6.49637 7.91287C5.96501 8.44422 5.6665 9.16489 5.6665 9.91634V26.9163C5.6665 27.6678 5.96501 28.3885 6.49637 28.9198C7.02772 29.4512 7.74839 29.7497 8.49984 29.7497H16.5706M25.4998 19.833V25.4997H31.1665M25.4998 15.583V9.91634C25.4998 9.16489 25.2013 8.44422 24.67 7.91287C24.1386 7.38152 23.418 7.08301 22.6665 7.08301H19.8332" stroke="black" stroke-width="2.83333" stroke-linecap="round" stroke-linejoin="round"/>
<path d="M11.333 15.5833H16.9997M11.333 21.25H15.583M11.333 7.08333C11.333 6.33189 11.6315 5.61122 12.1629 5.07986C12.6942 4.54851 13.4149 4.25 14.1663 4.25H16.9997C17.7511 4.25 18.4718 4.54851 19.0031 5.07986C19.5345 5.61122 19.833 6.33189 19.833 7.08333C19.833 7.83478 19.5345 8.55545 19.0031 9.0868C18.4718 9.61816 17.7511 9.91667 16.9997 9.91667H14.1663C13.4149 9.91667 12.6942 9.61816 12.1629 9.0868C11.6315 8.55545 11.333 7.83478 11.333 7.08333ZM19.833 25.5C19.833 27.0029 20.43 28.4442 21.4927 29.5069C22.5554 30.5696 23.9968 31.1667 25.4997 31.1667C27.0026 31.1667 28.4439 30.5696 29.5066 29.5069C30.5693 28.4442 31.1663 27.0029 31.1663 25.5C31.1663 23.9971 30.5693 22.5558 29.5066 21.4931C28.4439 20.4304 27.0026 19.8333 25.4997 19.8333C23.9968 19.8333 22.5554 20.4304 21.4927 21.4931C20.43 22.5558 19.833 23.9971 19.833 25.5Z" stroke="black" stroke-width="2.83333" stroke-linecap="round" stroke-linejoin="round"/>
</svg>
