<svg width="74" height="74" viewBox="0 0 74 74" fill="none" xmlns="http://www.w3.org/2000/svg">
<rect width="73.41" height="73.41" rx="19.5895" fill="#4C9A2A" fill-opacity="0.2"/>
<path d="M36.705 38.2289C34.6846 38.2289 32.7468 37.4263 31.3182 35.9976C29.8895 34.5689 29.0869 32.6312 29.0869 30.6107H32.1341C32.1341 31.823 32.6157 32.9856 33.4729 33.8428C34.3301 34.7 35.4927 35.1816 36.705 35.1816C37.9173 35.1816 39.0799 34.7 39.9371 33.8428C40.7943 32.9856 41.2759 31.823 41.2759 30.6107H44.3232C44.3232 32.6312 43.5205 34.5689 42.0919 35.9976C40.6632 37.4263 38.7255 38.2289 36.705 38.2289ZM36.705 22.9926C37.9173 22.9926 39.0799 23.4741 39.9371 24.3314C40.7943 25.1886 41.2759 26.3512 41.2759 27.5635H32.1341C32.1341 26.3512 32.6157 25.1886 33.4729 24.3314C34.3301 23.4741 35.4927 22.9926 36.705 22.9926ZM47.3704 27.5635H44.3232C44.3232 26.563 44.1261 25.5724 43.7433 24.6481C43.3604 23.7238 42.7993 22.884 42.0919 22.1766C41.3844 21.4692 40.5446 20.9081 39.6204 20.5252C38.6961 20.1424 37.7054 19.9453 36.705 19.9453C34.6846 19.9453 32.7468 20.7479 31.3182 22.1766C29.8895 23.6053 29.0869 25.543 29.0869 27.5635H26.0396C24.3484 27.5635 22.9923 28.9195 22.9923 30.6107V48.8943C22.9923 49.7025 23.3134 50.4776 23.8849 51.049C24.4563 51.6205 25.2314 51.9415 26.0396 51.9415H47.3704C48.1786 51.9415 48.9537 51.6205 49.5252 51.049C50.0966 50.4776 50.4177 49.7025 50.4177 48.8943V30.6107C50.4177 29.8025 50.0966 29.0275 49.5252 28.456C48.9537 27.8845 48.1786 27.5635 47.3704 27.5635Z" fill="#4C9A2A"/>
</svg>
