<svg width="62" height="49" viewBox="0 0 62 49" fill="none" xmlns="http://www.w3.org/2000/svg">
<path fill-rule="evenodd" clip-rule="evenodd" d="M0 0H61.1749V48.94H0V0ZM27.5288 36.705H33.6462V39.7637H27.5288V36.705ZM42.8224 27.5288H36.705V39.7637H42.8224V27.5288ZM45.8813 21.4112H51.9987V39.7637H45.8813V21.4112ZM55.0575 6.11755H6.1174V12.235H55.0575V6.11755ZM27.5288 29.0582C27.5288 34.9707 22.7356 39.7637 16.8231 39.7637C10.9106 39.7637 6.1174 34.9707 6.1174 29.0582C6.1174 23.1455 10.9106 18.3525 16.8231 18.3525C22.7356 18.3525 27.5288 23.1455 27.5288 29.0582ZM20.1599 22.1777C19.1199 21.6731 17.979 21.411 16.8231 21.4112V29.0582L24.259 30.8418C24.6655 29.1467 24.4808 27.3636 23.7353 25.7879C22.9898 24.2122 21.7283 22.9384 20.1599 22.1777Z" fill="#A4DE02"/>
</svg>
