<svg width="34" height="23" viewBox="0 0 34 23" fill="none" xmlns="http://www.w3.org/2000/svg">
<path d="M9.91667 0C6.8 0 4.25 2.55 4.25 5.66667C4.25 8.78333 6.8 11.3333 9.91667 11.3333C13.0333 11.3333 15.5833 8.78333 15.5833 5.66667C15.5833 2.55 13.0333 0 9.91667 0ZM9.91667 8.5C8.35833 8.5 7.08333 7.225 7.08333 5.66667C7.08333 4.10833 8.35833 2.83333 9.91667 2.83333C11.475 2.83333 12.75 4.10833 12.75 5.66667C12.75 7.225 11.475 8.5 9.91667 8.5ZM9.91667 14.1667C4.39167 14.1667 0 16.7167 0 19.8333V22.6667H15.5833V19.8333H2.83333C2.83333 18.9833 5.38333 17 9.91667 17C12.4667 17 14.45 17.7083 15.5833 18.4167V15.3C14.025 14.5917 12.0417 14.1667 9.91667 14.1667ZM31.1667 0H21.25C19.6917 0 18.4167 1.275 18.4167 2.83333V19.8333C18.4167 21.3917 19.6917 22.6667 21.25 22.6667H31.1667C32.725 22.6667 34 21.3917 34 19.8333V2.83333C34 1.275 32.725 0 31.1667 0ZM22.6667 19.8333H21.25V2.83333H22.6667V19.8333ZM31.1667 19.8333H25.5V2.83333H31.1667V19.8333Z" fill="black"/>
</svg>
