<svg width="65" height="65" viewBox="0 0 65 65" fill="none" xmlns="http://www.w3.org/2000/svg">
<path d="M4.92459 48.5118V59.9821H16.3949L50.2247 26.1217L38.7544 14.6514L4.92459 48.5118ZM64.9067 51.907L51.907 64.9067L36.0015 49.0012L41.4155 43.5872L44.4742 46.6459L52.0293 39.0602L56.3728 43.4037L51.907 47.7471L55.1493 50.8058L59.4927 46.5236L64.9067 51.907ZM15.9667 28.8746L0 12.9997L12.9997 0L18.3831 5.41399L10.828 12.9997L14.1008 16.242L21.6254 8.65626L25.9688 12.9997L21.6254 17.3125L24.6841 20.3713L15.9667 28.8746ZM59.0951 17.1596C60.288 15.9667 60.288 14.1008 59.0951 12.8468L51.9376 5.81163C50.8058 4.61871 48.8177 4.61871 47.6247 5.81163L41.9966 11.4091L53.467 22.8795L59.0951 17.1596Z" fill="#A4DE02"/>
</svg>
