<svg width="26" height="26" viewBox="0 0 26 26" fill="none" xmlns="http://www.w3.org/2000/svg">
<path d="M11.0833 0C9.38153 0 7.74942 0.67604 6.54606 1.8794C5.34271 3.08276 4.66667 4.71486 4.66667 6.41667C4.66667 8.11847 5.34271 9.75058 6.54606 10.9539C7.74942 12.1573 9.38153 12.8333 11.0833 12.8333C12.7851 12.8333 14.4172 12.1573 15.6206 10.9539C16.824 9.75058 17.5 8.11847 17.5 6.41667C17.5 4.71486 16.824 3.08276 15.6206 1.8794C14.4172 0.67604 12.7851 0 11.0833 0ZM14.4457 13.4167H22.8877L25.3155 18.2723L18.6667 25.6608L12.0167 18.2723L14.4457 13.4167ZM11.9642 14C11.0088 15.3684 10.4976 16.9977 10.5 18.6667C10.5 20.4015 11.0413 22.0103 11.9642 23.3333H0V21C0 19.1435 0.737498 17.363 2.05025 16.0503C3.36301 14.7375 5.14348 14 7 14H11.9642Z" fill="black"/>
</svg>
