<svg width="271" height="53" viewBox="0 0 271 53" fill="none" xmlns="http://www.w3.org/2000/svg">
<path d="M44.4725 26.2348C42.6906 26.2348 41.0268 25.6981 39.6313 24.7749V26.0094C39.6313 35.0799 32.2783 42.4437 23.2077 42.4437H9.68241V24.7749C8.28694 25.6981 6.62311 26.2348 4.8412 26.2348C3.0593 26.2348 1.39547 25.6981 0 24.7749V53.0063H22.6495C37.3878 53.0063 49.3244 41.0589 49.3244 26.3314V24.7749C47.929 25.6981 46.2651 26.2348 44.4832 26.2348H44.4725Z" fill="white"/>
<path d="M22.016 0L19.8154 10.0044V17.4326C19.8154 20.1055 21.9838 22.2738 24.6566 22.2738C27.3295 22.2738 29.4978 20.1055 29.4978 17.4326V10.0044L27.2973 0H22.016Z" fill="#76BA1B"/>
<path d="M0 10.0044V17.4326C0 20.1055 2.16835 22.2738 4.8412 22.2738C7.51406 22.2738 9.68241 20.1055 9.68241 17.4326V10.0044L14.9637 0H8.36208L0 10.0044Z" fill="#4C9A2A"/>
<path d="M40.9512 0H34.3496L39.6309 10.0044V17.4326C39.6309 20.1055 41.7993 22.2738 44.4721 22.2738C47.145 22.2738 49.3133 20.1055 49.3133 17.4326V10.0044L40.9512 0Z" fill="#A4DE02"/>
<path d="M65.2428 0H64.6953V53.0063H65.2428V0Z" fill="white"/>
<path d="M267.522 39.8245C269.443 39.8245 271 38.2674 271 36.3466C271 34.4258 269.443 32.8687 267.522 32.8687C265.601 32.8687 264.044 34.4258 264.044 36.3466C264.044 38.2674 265.601 39.8245 267.522 39.8245Z" fill="#76BA1B"/>
<path d="M80.626 14.1587H89.7824C96.7705 14.1587 102.009 19.3649 102.009 26.8145C102.009 34.2642 96.7705 39.4703 89.7824 39.4703H80.626V14.1694V14.1587ZM89.6106 34.8653C94.4196 34.8653 96.9207 31.5913 96.9207 26.8145C96.9207 22.0377 94.4304 18.7637 89.6106 18.7637H85.5101V34.876H89.6106V34.8653Z" fill="white"/>
<path d="M121.932 39.4597H117.155V36.9263C116.124 38.5687 114.267 39.8139 111.487 39.8139C107.676 39.8139 104.467 37.4631 104.467 31.8275V20.9214H109.244V31.0439C109.244 33.749 110.703 35.5309 113.205 35.5309C115.706 35.5309 117.166 33.749 117.166 31.0439V20.9214H121.942V39.4489L121.932 39.4597Z" fill="white"/>
<path d="M125.142 14.1587H129.918V28.8111L136.864 20.9321H142.563L135.189 29.0902L143.39 39.4596H138.044L132.237 32.332L129.918 34.8975V39.4596H125.142V14.1587Z" fill="white"/>
<path d="M142.467 30.1961C142.467 23.777 147.061 20.5781 151.376 20.5781C154.693 20.5781 156.829 22.3922 157.291 23.4335H157.398V20.9431H162.175V39.4706H157.398V36.9802H157.291C156.829 38.0107 154.693 39.8356 151.376 39.8356C147.061 39.8356 142.467 36.626 142.467 30.2176V30.1961ZM152.342 35.5418C155.015 35.5418 157.506 33.6848 157.506 30.1961C157.506 26.7075 155.015 24.8504 152.342 24.8504C149.67 24.8504 147.179 26.7397 147.179 30.1961C147.179 33.6526 149.67 35.5418 152.342 35.5418Z" fill="white"/>
<path d="M164.494 30.1961C164.494 23.777 169.088 20.5781 173.404 20.5781C176.721 20.5781 178.857 22.3922 179.318 23.4335H179.426V20.9431H184.202V39.4706H179.426V36.9802H179.318C178.857 38.0107 176.721 39.8356 173.404 39.8356C169.088 39.8356 164.494 36.626 164.494 30.2176V30.1961ZM174.37 35.5418C177.043 35.5418 179.533 33.6848 179.533 30.1961C179.533 26.7075 177.043 24.8504 174.37 24.8504C171.697 24.8504 169.207 26.7397 169.207 30.1961C169.207 33.6526 171.697 35.5418 174.37 35.5418Z" fill="white"/>
<path d="M187.411 20.9324H192.188V23.4657C193.218 21.8233 195.075 20.5781 197.856 20.5781C201.666 20.5781 204.876 22.929 204.876 28.5645V39.4706H200.099V29.3481C200.099 26.643 198.639 24.8611 196.138 24.8611C193.637 24.8611 192.177 26.643 192.177 29.3481V39.4706H187.4V20.9431L187.411 20.9324Z" fill="white"/>
<path d="M224.337 39.4596V35.4986H224.23C223.157 37.8817 220.312 39.8138 216.813 39.8138C212.175 39.8138 207.613 36.4969 207.613 30.1959C207.613 23.8948 212.175 20.5779 216.813 20.5779C220.301 20.5779 223.157 22.4993 224.23 24.8931H224.337V14.1694H226.517V39.4704H224.337V39.4596ZM217.102 37.8173C220.741 37.8173 224.413 35.284 224.413 30.1851C224.413 25.0863 220.741 22.5637 217.102 22.5637C213.464 22.5637 209.792 25.0541 209.792 30.1851C209.792 35.3162 213.464 37.8173 217.102 37.8173Z" fill="white"/>
<path d="M229.684 30.1961C229.684 23.8843 234.246 20.5781 238.883 20.5781C242.372 20.5781 245.227 22.4996 246.3 24.8933H246.408V20.9324H248.587V39.4599H246.408V35.4989H246.3C245.227 37.8819 242.382 39.8141 238.883 39.8141C234.246 39.8141 229.684 36.4972 229.684 30.1961ZM239.162 37.8283C242.801 37.8283 246.472 35.295 246.472 30.1961C246.472 25.0973 242.801 22.5747 239.162 22.5747C235.523 22.5747 231.852 25.0651 231.852 30.1961C231.852 35.3272 235.523 37.8283 239.162 37.8283Z" fill="white"/>
<path d="M252.634 20.9324H254.813V25.2476C255.564 22.7572 257.411 20.5781 260.835 20.5781C261.264 20.5781 261.543 20.6103 261.801 20.6855V22.7143C261.511 22.6391 261.264 22.6069 260.878 22.6069C257.496 22.6069 254.824 25.2798 254.824 29.6272V39.4599H252.645V20.9324H252.634Z" fill="white"/>
</svg>
