<svg width="24" height="26" viewBox="0 0 24 26" fill="none" xmlns="http://www.w3.org/2000/svg">
<path d="M18.0833 19.6V16.9167C18.0833 16.7611 18.025 16.625 17.9083 16.5083C17.7917 16.3917 17.6556 16.3333 17.5 16.3333C17.3444 16.3333 17.2083 16.3917 17.0917 16.5083C16.975 16.625 16.9167 16.7611 16.9167 16.9167V19.5708C16.9167 19.7264 16.9458 19.8773 17.0042 20.0235C17.0625 20.1697 17.15 20.3008 17.2667 20.4167L19.0167 22.1667C19.1333 22.2833 19.2694 22.3417 19.425 22.3417C19.5806 22.3417 19.7167 22.2833 19.8333 22.1667C19.95 22.05 20.0083 21.9139 20.0083 21.7583C20.0083 21.6028 19.95 21.4667 19.8333 21.35L18.0833 19.6ZM11.1125 12.5708C11.3069 12.5125 11.4917 12.4347 11.6667 12.3375L17.5875 8.925C17.8597 8.76944 18.0347 8.53144 18.1125 8.211C18.1903 7.89056 18.1514 7.59383 17.9958 7.32083C17.8403 7.04783 17.6069 6.87283 17.2958 6.79583C16.9847 6.71883 16.6931 6.75772 16.4208 6.9125L10.5 10.325L4.57917 6.9125C4.30694 6.75694 4.01528 6.71806 3.70417 6.79583C3.39306 6.87361 3.15972 7.04861 3.00417 7.32083C2.84861 7.59305 2.81478 7.88978 2.90267 8.211C2.99056 8.53222 3.17022 8.77022 3.44167 8.925L9.33333 12.3375C9.50833 12.4347 9.69306 12.5125 9.8875 12.5708C10.0819 12.6292 10.2861 12.6583 10.5 12.6583C10.7139 12.6583 10.9181 12.6292 11.1125 12.5708ZM0 16.3042V7.02917C0 6.60139 0.102278 6.2125 0.306833 5.8625C0.511389 5.5125 0.798 5.23056 1.16667 5.01667L9.33333 0.320833C9.52778 0.223611 9.71756 0.145833 9.90267 0.0875001C10.0878 0.0291667 10.2869 0 10.5 0C10.7131 0 10.9173 0.0291667 11.1125 0.0875001C11.3077 0.145833 11.4924 0.223611 11.6667 0.320833L19.8333 5.01667C20.2028 5.23056 20.4898 5.5125 20.6943 5.8625C20.8989 6.2125 21.0008 6.60139 21 7.02917V10.9958C21 11.3458 20.8542 11.6181 20.5625 11.8125C20.2708 12.0069 19.9597 12.0556 19.6292 11.9583C19.2986 11.8611 18.9533 11.7884 18.5932 11.7402C18.2331 11.6919 17.8687 11.6674 17.5 11.6667C15.2444 11.6667 13.3194 12.4639 11.725 14.0583C10.1306 15.6528 9.33333 17.5778 9.33333 19.8333V20.4318C9.33333 20.6162 9.35278 20.7861 9.39167 20.9417C9.46944 21.4278 9.32828 21.8069 8.96817 22.0792C8.60806 22.3514 8.23433 22.3806 7.847 22.1667L1.16667 18.3167C0.797222 18.1028 0.510611 17.8208 0.306833 17.4708C0.103056 17.1208 0.000777778 16.7319 0 16.3042ZM13.3735 23.961C12.2356 22.8231 11.6667 21.4472 11.6667 19.8333C11.6667 18.2194 12.2356 16.8439 13.3735 15.7068C14.5114 14.5697 15.8869 14.0008 17.5 14C19.1131 13.9992 20.489 14.5682 21.6277 15.7068C22.7663 16.8455 23.3349 18.221 23.3333 19.8333C23.3318 21.4457 22.7628 22.8216 21.6265 23.961C20.4902 25.1004 19.1147 25.669 17.5 25.6667C15.8853 25.6643 14.5098 25.0966 13.3735 23.961Z" fill="black"/>
</svg>
