<svg width="19" height="24" viewBox="0 0 19 24" fill="none" xmlns="http://www.w3.org/2000/svg">
<path d="M10.5 8.16667H16.9167L10.5 1.75V8.16667ZM2.33333 0H11.6667L18.6667 7V21C18.6667 21.6188 18.4208 22.2123 17.9832 22.6499C17.5457 23.0875 16.9522 23.3333 16.3333 23.3333H2.33333C1.71449 23.3333 1.121 23.0875 0.683417 22.6499C0.245833 22.2123 0 21.6188 0 21V2.33333C0 1.03833 1.03833 0 2.33333 0ZM3.5 21H5.83333V14H3.5V21ZM8.16667 21H10.5V11.6667H8.16667V21ZM12.8333 21H15.1667V16.3333H12.8333V21Z" fill="#4C9A2A"/>
</svg>
