<svg width="24" height="24" viewBox="0 0 24 24" fill="none" xmlns="http://www.w3.org/2000/svg">
<path fill-rule="evenodd" clip-rule="evenodd" d="M0.116667 22.5529C0.0946828 22.632 0.0939507 22.7155 0.114544 22.7949C0.135138 22.8744 0.176328 22.947 0.233958 23.0055C0.291589 23.0639 0.36362 23.1062 0.442782 23.1279C0.521944 23.1496 0.605437 23.1501 0.684833 23.1292L6.05967 21.7246C7.76496 22.6482 9.67362 23.1322 11.613 23.1327H11.6177C18.018 23.1327 23.2353 17.9457 23.2353 11.5687C23.2393 10.048 22.9407 8.54173 22.3571 7.1375C21.7734 5.73326 20.9163 4.45912 19.8357 3.38922C18.7568 2.31054 17.4754 1.45579 16.065 0.874149C14.6547 0.292507 13.1432 -0.00455417 11.6177 5.2774e-05C5.21733 5.2774e-05 0 5.18705 0 11.5629C0 13.5917 0.534333 15.5844 1.55167 17.3426L0.116667 22.5529ZM7.93567 6.03172C8.14917 6.03755 8.386 6.04922 8.61117 6.54855C8.7605 6.88105 9.01133 7.49355 9.21667 7.99289C9.3765 8.38139 9.50717 8.70105 9.53983 8.76639C9.61567 8.91572 9.66117 9.08722 9.56317 9.28905L9.5305 9.35672C9.45117 9.52005 9.39517 9.63672 9.26217 9.78839L9.09533 9.98672C8.99617 10.1081 8.897 10.2271 8.813 10.3111C8.6625 10.4604 8.50733 10.6214 8.68 10.9201C8.85267 11.2187 9.45933 12.2011 10.3542 12.9932C11.0086 13.5835 11.7596 14.0571 12.5743 14.3932C12.656 14.4282 12.7221 14.4578 12.7727 14.4819C13.0725 14.6312 13.251 14.6079 13.4237 14.4072C13.5975 14.2054 14.1738 13.5334 14.3768 13.2347C14.5728 12.9361 14.7735 12.9827 15.0512 13.0854C15.3288 13.1892 16.8058 13.9137 17.1057 14.0619L17.2725 14.1436C17.4813 14.2427 17.6225 14.3116 17.6832 14.4119C17.7578 14.5391 17.7578 15.1352 17.5105 15.8376C17.2562 16.5376 16.0323 17.2096 15.4782 17.2609L15.3207 17.2796C14.812 17.3402 14.168 17.4196 11.872 16.5154C9.04167 15.4024 7.17383 12.6421 6.797 12.0832L6.73517 11.9946L6.72933 11.9852C6.55667 11.7554 5.5055 10.3496 5.5055 8.89822C5.5055 7.50989 6.19033 6.78655 6.50183 6.45755L6.55667 6.39922C6.65749 6.28532 6.78069 6.19339 6.91858 6.12917C7.05647 6.06494 7.2061 6.02978 7.35817 6.02589C7.56 6.02589 7.763 6.02589 7.93567 6.03172Z" fill="black" stroke="black" stroke-width="2.33333" stroke-linejoin="round"/>
</svg>
