<svg width="21" height="15" viewBox="0 0 21 15" fill="none" xmlns="http://www.w3.org/2000/svg">
<path d="M20.0745 2.25594C19.838 1.36633 19.1436 0.668148 18.2615 0.431669C16.6624 0 10.2512 0 10.2512 0C10.2512 0 3.83998 0 2.24092 0.431669C1.35882 0.668148 0.664395 1.36633 0.427915 2.25594C0 3.86625 0 7.22201 0 7.22201C0 7.22201 0 10.5778 0.427915 12.1881C0.664395 13.0777 1.35882 13.7458 2.24092 13.9823C3.83998 14.414 10.2512 14.414 10.2512 14.414C10.2512 14.414 16.6624 14.414 18.2615 13.9823C19.1436 13.7458 19.838 13.0739 20.0745 12.1881C20.5024 10.5778 20.5024 7.22201 20.5024 7.22201C20.5024 7.22201 20.5024 3.86625 20.0745 2.25594ZM8.15666 10.27V4.17405L13.5131 7.22201L8.15666 10.27Z" fill="black"/>
</svg>
